**ABCDEFGHIJKLMNOPQRSTUVWXYZabcdefghijklmnopqrstuvwxyz**************************
**PARASOLID !"#$%&'()*+,-./:;<=>?@[\]^_`{|}~0123456789**************************
**PART1;
MC=AMD64;
MC_MODEL=Intel64 Family 6 Model 140 Stepping 1, GenuineIntel;
MC_ID=unknown;
OS=Windows_NT;
OS_RELEASE=unknown;
FRU=Parasolid Version 33.1, build 260,  4-25-2022;
APPL=SOLIDWORKS 2022-2022290;
SITE=;
USER=unknown;
FORMAT=text;
GUISE=transmit;
KEY=FILEmakeProjectedPlanarWire.x_t;
DATE=Fri Nov 10 18:21:24 2023;
**PART2;
SCH=SCH_3301260_33103;
USFLD_SIZE=0;
**PART3;
**END_OF_HEADER*****************************************************************
T51 : TRANSMIT FILE created by modeller version 330126023 SCH_3301260_33103_1300
6230 0 12 35 CCCI7 lattice222 0 CCCI4 mesh1006 0 I8 polyline1008 0 CCCCCCCDI5 ow
ner1040 0 CCCCCCI13 boundary_mesh1006 0 I17 boundary_polyline1008 0 CCCA16 index
_map_offset0 0 1 dA9 index_map82 0 A17 node_id_index_map82 0 A20 schema_embeddin
g_map82 0 A5 child12 0 A14 lowest_node_id0 0 1 dA16 mesh_offset_data206 0 Z1 156
 2 3 0 0 0 0 0 0 0 1e3 1e-8 0 4 0 1 0 3 1 5 6 7 8 0 0 9 10 11 0 0 0 0 0 0 0 81 2
55 2 2 146 12 1 0 0 0 0 13 0 70 11 CI9 list_type0 0 1 uI10 notransmit0 0 1 lCCCD
CCDI12 finger_index0 0 1 dI12 finger_block1012 0 CZ3 0 4 T1 0 0 3 20 1 14 14 13
 255 5 153 0 1 0 15 0 0 9 15 51 255 6 69 0 1 16 0 17 +-.390802990334015 -.01 -.2
64141640777553 -1 0 0 .045 0 0 1 30 255 7 103 0 10 18 0 0 +.1038145373376866 .01
 -.02913639241627745 1 0 0 29 255 8 145 0 11 19 0 .1038145373376866 .01 -.029136
39241627745 19 8 CCCCCCCA5 owner12 0 Z9 152 0 1 0 0 5 V0 16 255 10 101 0 ?20 0 2
1 7 0 0 1 18 255 11 143 0 22 0 23 8 ?1 17 255 22 0 0 0 0 11 24 25 0 26 +18 23 14
0 0 27 11 28 19 ?1 17 27 0 29 26 30 23 31 21 0 20 -18 28 137 0 30 23 32 33 ?1 29
 19 142 0 23 33 8 .1938145373376865 .01 -.02913639241627745 29 33 139 0 28 34 19
 .1938145373376865 .01 -.1191363924162774 29 34 136 0 32 35 33 .1038145373376866
 .01 -.1191363924162774 18 32 134 0 24 28 36 34 ?1 29 35 133 0 36 37 34 .2972904
57895491 .01 -.2521322560495015 18 36 131 0 38 32 39 35 ?1 29 37 130 0 39 40 35
 .300054874042252 .01 -.2471578060193865 18 39 128 0 41 36 42 37 ?1 29 40 127 0
 42 43 37 .300054874042252 .01 .459814056789704 18 42 125 0 44 39 45 40 ?1 29 43
 124 0 45 46 40 .294197009665983 .01 .465671921165973 18 45 122 0 47 42 48 43 ?1
 29 46 121 0 48 49 43 -.3558029903340165 .01 .465671921165973 18 48 119 0 50 45
 51 46 ?1 29 49 118 0 51 52 46 -.3616608547102855 .01 .459814056789704 18 51 116
 0 53 48 54 49 ?1 29 52 115 0 54 55 49 -.361660854710286 .01 -.2471578060193865
 18 54 113 0 56 51 57 52 ?1 29 55 112 0 57 58 52 -.358896438563525 .01 -.2521322
560495015 18 57 110 0 59 54 60 55 ?1 29 58 109 0 60 61 55 -.355802990334017 .01
 -.253070335188207 18 60 107 0 62 57 63 58 ?1 29 61 106 0 63 0 58 .2941970096659
825 .01 -.253070335188207 18 63 104 0 64 60 0 61 ?1 17 64 0 65 62 66 63 38 67 0
 68 +15 255 65 7 0 64 15 29 17 62 0 65 59 64 60 68 69 0 70 +17 66 0 65 64 41 36
 71 72 0 0 +17 38 0 0 0 0 36 64 67 0 66 -16 67 9 0 ?64 69 0 73 0 0 1 17 68 0 0 0
 0 63 62 69 0 0 -16 69 39 0 ?62 74 67 75 0 0 1 16 74 42 0 ?59 76 69 77 0 0 1 30
 75 41 0 69 78 77 0 +.2941970096659825 .01 -.253070335188207 -1 0 0 38 12 CCCCCC
CCCCCA17 intersection_data204 0 Z78 33 0 1 79 75 80 +81 82 83 84 85 86 38 77 70
 0 74 75 87 0 +88 89 90 91 92 93 38 87 62 0 1 77 94 95 -96 97 98 99 100 101 50 2
55 88 56 0 15 0 102 103 +.2941970096659825 .01 -.2471578060193865 0 -1 0 0 0 -1
 59 255 89 57 0 1 82 104 105 +1 104 40 255 4 90 0 1 4 .0003040544772847435 .3301
897385680735 ??-.355802990334017 .01 -.253070335188207 -.355911345690291 .01 -.2
53069206188024 -.3576842990080065 .01 -.2527281388908915 -.358896438563525 .01 -
.2521322560495015 41 3 CI8 term_use0 0 1 cCZ1 91 L?-.355802990334017 .01 -.25307
0335188207 41 1 92 L?-.358896438563525 .01 -.2521322560495015 204 2 17 INTERSECT
ION_DATA17 Intersection data7 uv_type0 0 1 u6 values0 1 1 fT8 93 2 .005912529168
82065 -.65 .00591140016863775 -.650108355356274 .00557033287150502 -.65188130867
3989 .00497445003011535 -.653093448229508 50 82 37 0 1 106 89 107 +.294197009665
9825 .025 -.2471578060193865 0 -1 0 0 0 -1 56 255 104 58 0 1 89 108 109 +E88 108
 94 -.015 .015 1 1 0 0 0 0 141 255 105 77 105 105 89 56 108 59 0 1 104 110 111 +
R110 112 87 0 0 1 1 0 0 0 0 141 109 89 109 109 104 38 94 65 0 1 87 113 114 -115
 116 117 118 119 120 31 255 113 73 0 76 94 121 0 --.355802990334017 .01 -.247157
8060193865 0 -1 0 0 0 -1 .00585786437626905 141 114 104 114 114 94 50 115 66 0 1
 97 116 122 +.2941970096659825 .025 -.2471578060193865 0 -1 0 0 0 -1 56 116 67 0
 1 115 16 123 +R16 6 87 .015 -.015 1 1 0 0 0 0 40 4 117 .0250695460838032 .99941
9567050473 4 .00142127568681543 .381696932707709 ??-.354127717654821 .025 -.2527
993465018725 -.355911345690291 .025 -.253069206188024 -.3576842990080065 .025 -.
2527281388908915 -.359666235425363 .025 -.251584517840365 41 1 118 L?-.354127717
654821 .025 -.2527993465018725 41 1 119 L?-.359666235425363 .025 -.2515845178403
65 204 16 120 4 .0056415404824863 -.648324727320804 .04076975935166155 .21077202
8261426 .00591140016863775 -.650108355356274 .03425784891246655 .209757347320817
 .00557033287150502 -.651881308673989 .02781549720724495 .2111624393470555 .0044
2671182097845 -.653863245091346 .020933977563614 .22396084738769 51 16 68 0 1 11
6 6 124 +-.355802990334017 .01 -.2471578060193865 0 1 0 .005 0 0 1 141 123 94 12
3 123 116 141 124 116 124 124 16 51 97 64 0 1 96 115 125 +-.390802990334015 -.01
 -.264141640777553 -1 0 0 .03 0 0 1 141 122 94 122 122 115 51 96 63 0 1 110 97 1
26 +-.355802990334017 .01 -.2471578060193865 0 1 0 .02 0 0 1 141 125 87 125 125
 97 51 110 60 0 1 108 96 127 +-.355802990334017 .01 -.2471578060193865 0 1 0 .02
 0 0 1 141 126 87 126 126 96 141 127 108 127 127 110 16 76 71 0 ?56 128 74 113 0
 0 1 30 121 76 0 128 113 129 0 +-.361660854710286 .01 -.247157806019386 23555881
4225035e-30 0 1 16 128 74 0 ?53 130 76 121 0 0 1 31 129 79 0 130 121 131 0 --.35
58029903340165 .01 .459814056789704 0 -1 0 0 0 -1 .00585786437626901 16 130 77 0
 ?50 132 128 129 0 0 1 30 131 82 0 132 129 133 0 +.2941970096659825 .01 .4656719
21165973 1 0 0 16 132 80 0 ?47 134 130 131 0 0 1 31 133 85 0 134 131 135 0 -.294
197009665983 .01 .459814056789704 0 -1 0 0 0 -1 .00585786437626904 16 134 83 0 ?
44 136 132 133 0 0 1 30 135 88 0 136 133 137 0 +.300054874042252 .01 -.247157806
0193865 -1570392094833565e-31 0 -1 16 136 86 0 ?41 72 134 135 0 0 1 31 137 91 0
 72 135 138 0 -.2941970096659825 .01 -.2471578060193865 0 -1 0 0 0 -1 .005857864
37626905 16 72 89 0 ?66 25 136 137 0 0 1 30 138 94 0 25 137 139 0 +.103814537337
6866 .01 -.1191363924162774 -1541976423090495e-31 0 1 16 25 92 0 ?22 140 72 138
 0 0 1 30 139 97 0 140 138 18 0 +.1038145373376866 .01 -.1191363924162774 -1 0 0
 16 140 95 0 ?141 21 25 139 0 0 1 30 18 100 0 21 139 7 0 +.1938145373376865 .01
 -.1191363924162774 0 0 -1 16 21 98 0 ?31 10 140 18 0 0 1 17 31 0 0 0 0 28 27 21
 0 0 +17 141 0 0 0 0 32 30 140 0 0 +17 30 0 29 27 24 28 141 140 0 31 -15 29 8 0
 24 15 0 17 24 0 29 30 26 32 22 25 0 141 -17 26 0 29 24 27 11 20 10 0 0 -17 20 0
 0 0 0 23 26 10 0 0 +14 255 15 1 142 ?0 0 65 5 88 -0 0 0 0 5 81 1 142 156 143 15
 144 0 0 0 145 80 255 1 143 146 147 9000 1 1 1 1 1 1 1 1 0 FFFFTFTFFFFFFF1 81 1
 144 6 148 15 0 142 0 0 149 82 255 1 145 -2099117699 80 1 148 0 150 8001 0 0 0 0
 3 5 0 0 0 FFFFTFTFFFFFFF2 83 255 3 149 .670588235294118 .63921568627451 .619607
843137255 79 255 15 150 SDL/TYSA_COLOUR79 14 147 SWEntUnchanged17 41 0 65 66 44
 39 151 136 0 71 +17 44 0 65 41 47 42 152 134 0 151 +17 151 0 0 0 0 42 41 136 0
 0 -17 71 0 0 0 0 39 66 72 0 0 -17 47 0 65 44 50 45 153 132 0 152 +17 152 0 0 0
 0 45 44 134 0 0 -17 50 0 65 47 53 48 154 130 0 153 +17 153 0 0 0 0 48 47 132 0
 0 -17 53 0 65 50 56 51 155 128 0 154 +17 154 0 0 0 0 51 50 130 0 0 -17 56 0 65
 53 59 54 156 76 0 155 +17 155 0 0 0 0 54 53 128 0 0 -17 59 0 65 56 62 57 70 74
 0 156 +17 156 0 0 0 0 57 56 76 0 0 -17 70 0 0 0 0 60 59 74 0 0 -141 111 104 111
 111 108 51 112 61 0 1 157 158 159 +-.390802990334015 -.01 -.264141640777553 -1
 0 0 .03 0 0 1 51 157 28 0 1 160 112 161 +.2941970096659825 .01 -.24715780601938
65 0 1 0 .02 0 0 1 51 158 31 0 1 112 162 163 +-.390802990334015 -.01 -.264141640
777553 -1 0 0 .03 0 0 1 141 159 160 164 164 112 56 160 27 0 1 165 157 166 +R157
 112 79 0 0 1 1 0 0 0 0 141 164 108 159 159 112 56 165 26 0 1 102 160 167 +E88 1
60 78 -.015 .015 1 1 0 0 0 0 141 166 165 166 166 160 38 79 30 0 1 73 78 168 +158
 162 169 170 171 172 38 73 38 0 67 0 79 0 +88 102 173 174 175 176 141 168 160 17
7 177 79 51 162 32 0 1 158 81 178 +.2941970096659825 .01 -.2471578060193865 0 1
 0 .02 0 0 1 40 12 169 0 1 12 .00123148318253529 .3730315472485035 ??.3141075671
312885 .01331956941556136 -.2452684406707135 .313868470543111 .0168541654221869
 -.250768017503443 .3118173473619165 .0190416500063169 -.2566195024571955 .30829
22515829105 .01986951951929375 -.2613466803687945 .3034326333857855 .01999047180
920635 -.2648976835416865 .297259968544533 .0198708941501393 -.266921871464236 .
2905465287958295 .01988003623232785 -.266821833821865 .2842688530546255 .0199976
1908602265 -.26451959470317 .279084352561327 .0197475228314225 -.260257714234221
5 .2757497511331545 .01853596982586635 -.254884296336665 .2743455077814895 .0162
347773380813 -.2495904738820325 .274286452200677 .01331956941556094 -.2452684406
70713 41 1 170 L?.3141075671312885 .01331956941556136 -.2452684406707135 41 1 17
1 L?.274286452200677 .01331956941556094 -.245268440670713 204 48 172 4 .89039289
5217745 -.704910557465303 1.476186982275 .003319569415561365 ???????????????????
?????????????????????????56 81 34 0 1 162 179 180 +R179 106 79 .015 -.015 1 1 0
 0 0 0 141 178 79 178 178 162 51 179 35 0 1 81 106 181 +.2941970096659825 .01 -.
2471578060193865 0 1 0 .005 0 0 1 141 180 78 180 180 81 51 106 36 0 1 179 82 182
 +-.390802990334015 -.01 -.264141640777553 -1 0 0 .045 0 0 1 141 182 81 182 182
 106 141 181 81 181 181 179 141 177 81 168 168 79 59 102 25 0 1 88 165 183 +1 16
5 40 3 173 0 1 3 .0003421962973158 .3510258536396655 ??.297290457895491 .01 -.25
2132256049502 .296078318339973 .01 -.2527281388908915 .2941970096659825 .01 -.25
3070335188207 41 1 174 L?.297290457895491 .01 -.252132256049502 41 1 175 L?.2941
970096659825 .01 -.253070335188207 204 6 176 2 .00497445003011574 .0030934482295
08465 .00557033287150491 .001881308673990055 .00591252916882071 0 141 183 73 183
 183 102 141 167 102 167 167 165 141 163 79 163 163 158 141 161 160 161 161 157
 141 107 78 107 107 82 141 103 73 184 185 88 141 184 104 186 103 88 141 185 165
 103 186 88 141 186 77 185 184 88 141 95 108 187 187 87 40 12 98 0 1 12 .0012314
83182535334 .3730315472485035 ??-.3757135477993225 .01331956941556138 -.24526844
06707135 -.375474451211145 .0168541654221869 -.250768017503443 -.373423328029950
5 .01904165000631695 -.2566195024571955 -.369898232250944 .01986951951929375 -.2
613466803687945 -.3650386140538195 .01999047180920635 -.2648976835416865 -.35886
5949212567 .0198708941501393 -.2669218714642365 -.3521525094638635 .019880036232
32785 -.266821833821865 -.3458748337226595 .01999761908602265 -.26451959470317 -
.340690333229361 .0197475228314225 -.2602577142342215 -.3373557318011885 .018535
9698258663 -.254884296336665 -.3359514884495235 .0162347773380813 -.249590473882
0325 -.335892432868711 .01331956941556136 -.2452684406707135 41 1 99 L?-.3757135
477993225 .01331956941556138 -.2452684406707135 41 1 100 L?-.335892432868711 .01
331956941556136 -.2452684406707135 204 48 101 4 4.80699832490458 .00331956941556
138 .890392895217746 -.0150894425346928 ????????????????????????????????????????
????141 187 116 95 95 87 141 80 165 80 80 78 40 4 83 .02506954608380355 .9994195
67050473 4 .00142127568681543 .381696932707715 ??.2925217369867875 .025 -.252799
346501873 .2943053650222575 .025 -.253069206188024 .296078318339973 .025 -.25272
81388908915 .298060254757329 .025 -.2515845178403645 41 1 84 L?.2925217369867875
 .025 -.252799346501873 41 1 85 L?.298060254757329 .025 -.2515845178403645 204 1
6 86 4 .0407697593516604 .789227971738574 .00564154048248641 -.00167527267919548
5 .03425784891246535 .790242652679184 .00591140016863775 .000108355356274792 .02
781549720724395 .788837560652944 .00557033287150491 .001881308673990055 .0209339
7756361315 .776039152612307 .00442671182097823 .003863245091346225 141 17 116 17
 17 6 74 4 CI16 index_map_offset0 0 1 dCCZ20 14 3 0 0 144 2 142 0 0 0 0 0 0 0 0
 0 0 0 0 0 0 0 0 0 80 2 12 188 189 8004 0 0 0 0 3 5 0 0 0 FFTFFFFFFFFFFF2 3 83 1
 13 1 79 16 189 SDL/TYSA_DENSITY1 0 
